<?xml version="1.0" encoding="utf-8"?>
<!-- Generator: Adobe Illustrator 21.1.0, SVG Export Plug-In . SVG Version: 6.00 Build 0)  -->
<svg version="1.1" id="Layer_1" xmlns="http://www.w3.org/2000/svg" xmlns:xlink="http://www.w3.org/1999/xlink" x="0px" y="0px"
	 viewBox="0 0 121 108" style="enable-background:new 0 0 121 108;" xml:space="preserve">
<style type="text/css">
	.st0{fill:#FFFFFF;}
</style>
<polygon class="st0" points="107,14 107,0 93.9,0 80.5,0 67,0 67,14 54,14 54,0 40.2,0 26.7,0 13,0 13,14 0,14 0,27.1 0,40.6 0,54 
	13,54 13,67 27,67 27,81 40,81 40,94 54,94 54,108 67,108 67,94 80,94 80,81 94,81 94,67 107,67 107,54 121,54 121,40.6 121,27.1 
	121,14 "/>
</svg>
