<?xml version="1.0" encoding="utf-8"?>
<!-- Generator: Adobe Illustrator 21.1.0, SVG Export Plug-In . SVG Version: 6.00 Build 0)  -->
<svg version="1.1" id="Layer_1" xmlns="http://www.w3.org/2000/svg" xmlns:xlink="http://www.w3.org/1999/xlink" x="0px" y="0px"
	 viewBox="0 0 231.8 30" style="enable-background:new 0 0 231.8 30;" xml:space="preserve">
<style type="text/css">
	.st0{fill:#FFFFFF;}
</style>
<g>
	<polygon class="st0" points="31.8,0 31.8,4.3 40.5,4.3 40.5,19.2 44.8,19.2 44.8,4.3 53.4,4.3 53.4,0 	"/>
	<polygon class="st0" points="49.1,8.7 49.1,17.4 42.6,23.9 36.1,17.4 36.1,8.7 31.8,8.7 31.8,19.2 31.8,19.2 42.6,30 53.4,19.2 
		53.4,8.7 	"/>
</g>
<g>
	<path class="st0" d="M67,9.4v13.8h-2.6V9.4h-5V6.7h12.5v2.6H67V9.4z"/>
	<path class="st0" d="M83.4,23.2l-1.6-3.5h-7.1l-1.6,3.5h-2.9l8.1-17.3l8.1,17.3H83.4z M78.3,11.9L76,17h4.6L78.3,11.9z"/>
	<path class="st0" d="M92.3,23.8L84.5,6.7h2.9l5,10.9l4.9-10.9h2.9L92.3,23.8z"/>
	<path class="st0" d="M103.5,23.2V9.4h-2V6.7h11v2.6h-6.4v4.2h6.4v2.6h-6.4v4.4h6.4v2.6h-9V23.2z"/>
	<path class="st0" d="M126.9,23.2l-4.3-6.1c-0.1,0-0.2,0-0.3,0c-0.4,0-0.8,0-1.2-0.1c-0.4,0-0.8-0.1-1.2-0.2v6.3h-2.6V9.4h-2.1V6.7
		h8.2c0.8,0,1.5,0.1,2.2,0.3c0.7,0.2,1.3,0.5,1.8,1c0.4,0.4,0.8,1,1.1,1.6c0.3,0.6,0.5,1.3,0.5,2.2c0,1.2-0.3,2.2-1,3
		c-0.6,0.8-1.5,1.4-2.6,1.8l4.7,6.6H126.9z M126.1,10.6c-0.2-0.3-0.4-0.5-0.7-0.7c-0.3-0.2-0.6-0.3-1-0.4c-0.4-0.1-0.7-0.1-1.1-0.1
		h-3.5v4.8c0.3,0.1,0.7,0.2,1.2,0.2c0.4,0.1,0.9,0.1,1.4,0.1s1,0,1.5-0.1s0.9-0.2,1.3-0.4s0.7-0.5,0.9-0.9c0.2-0.4,0.3-0.8,0.3-1.3
		C126.4,11.3,126.3,10.9,126.1,10.6z"/>
	<path class="st0" d="M135.5,11.6v11.5h-2.6V5.3l13.2,13v-9H144V6.7h4.8v17.9L135.5,11.6z"/>
	<path class="st0" d="M164.3,23.2l-1.6-3.5h-7.1l-1.6,3.5h-2.9l8.1-17.3l8.1,17.3H164.3z M159.2,11.9l-2.3,5.1h4.6L159.2,11.9z"/>
	<path class="st0" d="M173,22.9c-0.3,0.3-0.8,0.5-1.2,0.5c-0.5,0-0.9-0.2-1.2-0.5s-0.5-0.8-0.5-1.2c0-0.5,0.2-0.9,0.5-1.2
		c0.3-0.3,0.8-0.5,1.2-0.5c0.5,0,0.9,0.2,1.2,0.5s0.5,0.7,0.5,1.2C173.5,22.2,173.3,22.6,173,22.9z"/>
	<path class="st0" d="M188.3,10c-0.5-0.3-0.9-0.5-1.5-0.7c-0.5-0.2-1.1-0.2-1.6-0.2c-0.8,0-1.5,0.2-2.2,0.5s-1.3,0.7-1.8,1.2
		s-0.9,1.1-1.2,1.8s-0.5,1.4-0.5,2.2s0.2,1.5,0.5,2.2s0.7,1.3,1.2,1.8s1.1,0.9,1.8,1.2c0.7,0.3,1.4,0.5,2.2,0.5h3.6v2.6h-3.6
		c-1.2,0-2.3-0.2-3.3-0.7c-1-0.4-1.9-1-2.7-1.8s-1.4-1.6-1.8-2.7c-0.4-1-0.7-2.1-0.7-3.3c0-1.1,0.2-2.2,0.7-3.3c0.4-1,1-1.9,1.8-2.7
		s1.6-1.4,2.7-1.8c1-0.4,2.1-0.7,3.3-0.7c1.6,0,3.2,0.4,4.5,1.3L188.3,10z"/>
	<path class="st0" d="M208.3,18.3c-0.5,1-1.1,1.9-1.8,2.7c-0.8,0.8-1.7,1.4-2.7,1.8s-2.1,0.7-3.3,0.7s-2.3-0.2-3.3-0.7
		c-1-0.4-1.9-1-2.7-1.8s-1.4-1.7-1.8-2.7c-0.5-1-0.7-2.1-0.7-3.3s0.2-2.3,0.7-3.3s1.1-1.9,1.8-2.7s1.7-1.4,2.7-1.8
		c1-0.5,2.1-0.7,3.3-0.7s2.3,0.2,3.3,0.7s1.9,1.1,2.7,1.8s1.4,1.7,1.8,2.7c0.5,1,0.7,2.1,0.7,3.3S208.8,17.2,208.3,18.3z
		 M205.9,12.6c-0.3-0.7-0.7-1.3-1.3-1.9c-0.5-0.5-1.2-0.9-1.9-1.3c-0.7-0.3-1.5-0.5-2.3-0.5s-1.6,0.2-2.3,0.5s-1.3,0.7-1.9,1.3
		c-0.5,0.5-0.9,1.2-1.3,1.9c-0.3,0.7-0.5,1.5-0.5,2.3s0.2,1.6,0.5,2.3s0.7,1.3,1.3,1.9c0.5,0.5,1.1,0.9,1.9,1.3
		c0.7,0.3,1.5,0.5,2.3,0.5s1.6-0.2,2.3-0.5s1.3-0.7,1.9-1.3c0.5-0.5,0.9-1.1,1.3-1.9c0.3-0.7,0.5-1.5,0.5-2.3S206.2,13.4,205.9,12.6
		z"/>
	<path class="st0" d="M229.3,23.2l-2.4-9.7l-5.4,10.3l-5.4-10.3l-2.4,9.7H211l4.2-17.1l6.3,12.1l6.3-12.1l4.2,17.1H229.3z"/>
</g>
<g>
	<rect y="6.7" class="st0" width="23.8" height="2.7"/>
	<rect y="20.5" class="st0" width="23.8" height="2.7"/>
	<rect y="13.6" class="st0" width="23.8" height="2.7"/>
</g>
</svg>
