<?xml version="1.0" encoding="utf-8"?>
<!-- Generator: Adobe Illustrator 21.1.0, SVG Export Plug-In . SVG Version: 6.00 Build 0)  -->
<svg version="1.1" id="Layer_1" xmlns="http://www.w3.org/2000/svg" xmlns:xlink="http://www.w3.org/1999/xlink" x="0px" y="0px"
	 viewBox="0 0 200 30" style="enable-background:new 0 0 200 30;" xml:space="preserve">
<style type="text/css">
	.st0{fill:#FFFFFF;}
</style>
<g>
	<polygon class="st0" points="0,0 0,4.3 8.7,4.3 8.7,19.2 13,19.2 13,4.3 21.6,4.3 21.6,0 	"/>
	<polygon class="st0" points="17.3,8.7 17.3,17.4 10.8,23.9 4.3,17.4 4.3,8.7 0,8.7 0,19.2 0,19.2 10.8,30 21.6,19.2 21.6,8.7 	"/>
</g>
<g>
	<path class="st0" d="M35.2,9.4v13.8h-2.6V9.4h-5V6.7h12.5v2.6h-4.9V9.4z"/>
	<path class="st0" d="M51.6,23.2L50,19.7h-7.1l-1.6,3.5h-2.9l8.1-17.3l8.1,17.3H51.6z M46.5,11.9L44.2,17h4.6L46.5,11.9z"/>
	<path class="st0" d="M60.5,23.8L52.7,6.7h2.9l5,10.9l4.9-10.9h2.9L60.5,23.8z"/>
	<path class="st0" d="M71.7,23.2V9.4h-2V6.7h11v2.6h-6.4v4.2h6.4v2.6h-6.4v4.4h6.4v2.6h-9V23.2z"/>
	<path class="st0" d="M95.1,23.2l-4.3-6.1c-0.1,0-0.2,0-0.3,0c-0.4,0-0.8,0-1.2-0.1c-0.4,0-0.8-0.1-1.2-0.2v6.3h-2.6V9.4h-2.1V6.7
		h8.2c0.8,0,1.5,0.1,2.2,0.3c0.7,0.2,1.3,0.5,1.8,1c0.4,0.4,0.8,1,1.1,1.6c0.3,0.6,0.5,1.3,0.5,2.2c0,1.2-0.3,2.2-1,3
		c-0.6,0.8-1.5,1.4-2.6,1.8l4.7,6.6H95.1z M94.3,10.6c-0.2-0.3-0.4-0.5-0.7-0.7c-0.3-0.2-0.6-0.3-1-0.4c-0.4-0.1-0.7-0.1-1.1-0.1H88
		v4.8c0.3,0.1,0.7,0.2,1.2,0.2c0.4,0.1,0.9,0.1,1.4,0.1s1,0,1.5-0.1s0.9-0.2,1.3-0.4s0.7-0.5,0.9-0.9c0.2-0.4,0.3-0.8,0.3-1.3
		C94.6,11.3,94.5,10.9,94.3,10.6z"/>
	<path class="st0" d="M103.7,11.6v11.5h-2.6V5.3l13.2,13v-9h-2.1V6.7h4.8v17.9L103.7,11.6z"/>
	<path class="st0" d="M132.5,23.2l-1.6-3.5h-7.1l-1.6,3.5h-2.9l8.1-17.3l8.1,17.3H132.5z M127.4,11.9l-2.3,5.1h4.6L127.4,11.9z"/>
	<path class="st0" d="M141.2,22.9c-0.3,0.3-0.8,0.5-1.2,0.5c-0.5,0-0.9-0.2-1.2-0.5s-0.5-0.8-0.5-1.2c0-0.5,0.2-0.9,0.5-1.2
		c0.3-0.3,0.8-0.5,1.2-0.5c0.5,0,0.9,0.2,1.2,0.5s0.5,0.7,0.5,1.2C141.7,22.2,141.5,22.6,141.2,22.9z"/>
	<path class="st0" d="M156.5,10c-0.5-0.3-0.9-0.5-1.5-0.7c-0.5-0.2-1.1-0.2-1.6-0.2c-0.8,0-1.5,0.2-2.2,0.5s-1.3,0.7-1.8,1.2
		s-0.9,1.1-1.2,1.8s-0.5,1.4-0.5,2.2s0.2,1.5,0.5,2.2s0.7,1.3,1.2,1.8s1.1,0.9,1.8,1.2c0.7,0.3,1.4,0.5,2.2,0.5h3.6v2.6h-3.6
		c-1.2,0-2.3-0.2-3.3-0.7c-1-0.4-1.9-1-2.7-1.8s-1.4-1.6-1.8-2.7c-0.4-1-0.7-2.1-0.7-3.3c0-1.1,0.2-2.2,0.7-3.3c0.4-1,1-1.9,1.8-2.7
		s1.6-1.4,2.7-1.8c1-0.4,2.1-0.7,3.3-0.7c1.6,0,3.2,0.4,4.5,1.3L156.5,10z"/>
	<path class="st0" d="M176.5,18.3c-0.5,1-1.1,1.9-1.8,2.7c-0.8,0.8-1.7,1.4-2.7,1.8s-2.1,0.7-3.3,0.7s-2.3-0.2-3.3-0.7
		c-1-0.4-1.9-1-2.7-1.8s-1.4-1.7-1.8-2.7c-0.5-1-0.7-2.1-0.7-3.3s0.2-2.3,0.7-3.3s1.1-1.9,1.8-2.7s1.7-1.4,2.7-1.8
		c1-0.5,2.1-0.7,3.3-0.7s2.3,0.2,3.3,0.7s1.9,1.1,2.7,1.8s1.4,1.7,1.8,2.7c0.5,1,0.7,2.1,0.7,3.3S177,17.2,176.5,18.3z M174.1,12.6
		c-0.3-0.7-0.7-1.3-1.3-1.9c-0.5-0.5-1.2-0.9-1.9-1.3c-0.7-0.3-1.5-0.5-2.3-0.5s-1.6,0.2-2.3,0.5s-1.3,0.7-1.9,1.3
		c-0.5,0.5-0.9,1.2-1.3,1.9c-0.3,0.7-0.5,1.5-0.5,2.3s0.2,1.6,0.5,2.3s0.7,1.3,1.3,1.9c0.5,0.5,1.1,0.9,1.9,1.3
		c0.7,0.3,1.5,0.5,2.3,0.5s1.6-0.2,2.3-0.5s1.3-0.7,1.9-1.3c0.5-0.5,0.9-1.1,1.3-1.9c0.3-0.7,0.5-1.5,0.5-2.3S174.4,13.4,174.1,12.6
		z"/>
	<path class="st0" d="M197.5,23.2l-2.4-9.7l-5.4,10.3l-5.4-10.3l-2.4,9.7h-2.7l4.2-17.1l6.3,12.1L196,6.1l4.2,17.1H197.5z"/>
</g>
</svg>
